<?xml version="1.0" encoding="utf-8"?>
<svg version="1.1" xmlns="http://www.w3.org/2000/svg" width="600px" height="600px" viewBox="0 0 600 600" xmlns:bx="https://boxy-svg.com">
  <defs>
    <style bx:fonts="Roboto">@import url(https://fonts.googleapis.com/css2?family=Roboto%3Aital%2Cwght%400%2C100..900%3B1%2C100..900&amp;display=swap);</style>
  </defs>
  <g>
    <rect x="-0.329" y="-1.844" width="599.634" height="602.02" style="stroke: rgb(0, 0, 0); stroke-linejoin: round; stroke-dashoffset: 3px; fill: rgb(8, 158, 237);" rx="110.763" ry="110.763"/>
    <g transform="matrix(1.13279, 0, 0, 1.13279, -49.005417, -266.245422)">
      <g>
        <path d="M 482.401 293.968 C 491.624 302.121 500.267 310.682 507.906 320.355 C 509.267 322.074 510.662 323.766 512.094 325.426 C 551.955 371.859 571.138 435.956 571.312 496.312 C 571.315 497.212 571.318 498.112 571.321 499.039 C 571.334 515.686 569.862 531.593 567 548 C 566.77 549.443 566.541 550.885 566.312 552.328 C 563.275 569.569 557.733 586.845 551 603 C 550.689 603.751 550.377 604.503 550.057 605.277 C 538.432 632.984 522.343 657.527 502.094 679.684 C 500.3 681.668 498.586 683.694 496.875 685.75 C 482.94 701.68 465.608 714.452 448 726 C 447.126 726.575 447.126 726.575 446.234 727.163 C 406.772 752.811 359.624 765.516 312.812 765.312 C 311.915 765.31 311.018 765.308 310.094 765.306 C 249.11 765.072 189.721 741.637 145 700 C 143.691 698.871 142.379 697.745 141.062 696.625 C 133.051 689.615 125.789 682.055 119.168 673.723 C 117.762 671.957 116.328 670.213 114.863 668.496 C 103.363 654.972 94.157 639.724 86 624 C 85.329 622.715 85.329 622.715 84.645 621.404 C 76.751 606.115 70.962 590.46 66 574 C 65.602 572.693 65.602 572.693 65.196 571.36 C 44.832 503.353 55.695 425.827 88.721 363.776 C 98.475 346.026 110.197 329.163 123.922 314.262 C 125.807 312.21 127.628 310.118 129.437 308 C 136.111 300.376 143.31 293.525 151.23 287.211 C 153.045 285.762 154.841 284.289 156.613 282.789 C 233.926 217.503 349.768 213.062 482.401 293.968 Z" style="stroke-linecap: round; fill: rgb(8, 158, 237);"/>
      </g>
      <path d="M 460 336 C 462.438 337.5 462.438 337.5 464 340 C 465.582 346.658 464.614 352.445 462.973 358.973 C 462.749 359.916 462.525 360.86 462.294 361.833 C 461.813 363.858 461.325 365.882 460.832 367.905 C 459.517 373.301 458.255 378.709 456.988 384.117 C 456.603 385.756 456.603 385.756 456.21 387.427 C 453.859 397.476 451.744 407.562 449.75 417.688 C 449.589 418.503 449.428 419.318 449.263 420.158 C 448.159 425.769 447.075 431.383 446 437 C 445.855 437.756 445.71 438.512 445.561 439.291 C 443.968 447.614 442.396 455.941 440.832 464.27 C 438.829 474.934 436.792 485.593 434.75 496.25 C 434.562 497.229 434.375 498.207 434.182 499.216 C 430.62 517.797 427.054 536.377 423.454 554.95 C 422.985 557.37 422.516 559.791 422.047 562.211 C 421.808 563.442 421.57 564.672 421.324 565.94 C 419.781 573.919 418.257 581.901 416.744 589.885 C 415.49 596.502 414.229 603.117 412.962 609.732 C 412.187 613.781 411.417 617.832 410.656 621.884 C 409.94 625.702 409.212 629.517 408.477 633.331 C 408.207 634.738 407.942 636.146 407.681 637.555 C 405.746 647.988 404.059 656.639 395 663 C 389.929 664.69 384.321 664.918 379.313 662.938 C 376.703 660.751 374.33 658.416 371.967 655.968 C 370.139 654.139 368.258 652.456 366.29 650.78 C 361.891 646.958 357.772 642.9 353.668 638.766 C 352.53 637.626 352.53 637.626 351.37 636.463 C 348.973 634.061 346.58 631.656 344.188 629.25 C 342.563 627.621 340.939 625.992 339.314 624.363 C 335.753 620.792 332.193 617.218 328.636 613.642 C 327.092 612.093 325.547 610.546 324 609 C 324.438 608.573 324.875 608.146 325.326 607.706 C 332.912 600.277 340.36 592.93 346.93 584.574 C 349.182 581.774 351.564 579.141 354 576.5 C 358.033 572.113 361.837 567.597 365.574 562.957 C 367.869 560.159 370.222 557.426 372.601 554.699 C 383.221 543.576 383.221 543.576 386.469 529.238 C 385.793 526.011 384.411 524.198 382 522 C 378.466 520.233 374.85 520.364 371 521 C 365.154 524.042 361.197 530.308 357.188 535.34 C 355.376 537.543 353.552 539.529 351.5 541.5 C 347.778 545.094 344.627 549.083 341.387 553.109 C 339.006 555.992 336.533 558.751 334 561.5 C 330.745 565.036 327.634 568.628 324.625 572.375 C 319.391 578.869 313.708 584.925 308 591 C 304.45 589.493 302.209 587.428 299.523 584.684 C 298.27 583.414 298.27 583.414 296.992 582.119 C 296.129 581.234 295.265 580.349 294.375 579.438 C 292.656 577.684 290.935 575.933 289.211 574.184 C 288.451 573.406 287.691 572.628 286.908 571.826 C 285.124 569.939 285.124 569.939 283 569 C 282.853 572.625 282.765 576.248 282.688 579.875 C 282.625 581.395 282.625 581.395 282.561 582.945 C 282.432 590.986 283.985 597.487 289.443 603.622 C 291.081 605.158 291.081 605.158 293.813 607.125 C 294.788 607.87 295.764 608.615 296.77 609.383 C 297.506 609.916 298.242 610.45 299 611 C 294.474 615.885 289.27 619.723 283.938 623.688 C 283.04 624.364 282.142 625.04 281.217 625.736 C 273.927 631.183 269.322 634.141 260 633 C 243.288 625.463 235.545 596.793 229.54 581.161 C 227.787 576.497 226.197 571.78 224.617 567.055 C 224.189 565.776 224.189 565.776 223.751 564.472 C 222.338 560.242 220.948 556.006 219.591 551.757 C 219.075 550.187 218.559 548.617 218.043 547.047 C 217.825 546.337 217.606 545.628 217.381 544.897 C 215.333 538.756 212.028 533.965 206.546 530.407 C 205.733 530.072 204.92 529.736 204.082 529.391 C 203.128 528.996 202.173 528.6 201.19 528.193 C 195.748 526.157 190.262 524.265 184.748 522.436 C 174.175 518.917 163.657 515.273 153.313 511.125 C 152.43 510.78 151.547 510.436 150.637 510.081 C 145.807 508.098 142.38 506.14 139 502 C 137.772 498.393 137.823 496.58 138.938 492.938 C 146.68 481.91 166.588 475.617 178.434 470.02 C 191.25 463.925 203.945 457.593 216.633 451.234 C 219.828 449.634 223.023 448.036 226.219 446.437 C 232.249 443.421 238.278 440.402 244.307 437.383 C 251.121 433.97 257.936 430.56 264.751 427.15 C 274.271 422.386 283.79 417.622 293.308 412.856 C 297.596 410.709 301.885 408.562 306.174 406.415 C 308.787 405.106 311.401 403.797 314.014 402.488 C 315.451 401.768 316.889 401.049 318.326 400.329 C 318.943 400.02 319.56 399.71 320.196 399.392 C 325.264 396.855 330.377 394.422 335.5 392 C 350.504 384.857 365.334 377.361 380.178 369.893 C 391.047 364.431 401.957 359.074 412.942 353.85 C 420.765 350.127 428.519 346.285 436.25 342.375 C 438.629 341.172 441.009 339.972 443.391 338.773 C 444.402 338.262 445.413 337.751 446.454 337.224 C 451.202 334.941 454.916 334.719 460 336 Z" style="stroke-linecap: round;" fill="#FDFEFE"/>
      <path d="M 398.813 401.063 C 401 402 401 402 403 405 C 402.864 410.369 400.454 413.541 397.125 417.5 C 396.114 418.742 395.104 419.984 394.094 421.227 C 393.577 421.855 393.06 422.483 392.527 423.13 C 390.634 425.448 388.793 427.803 386.955 430.166 C 379.894 439.241 372.605 448.133 365.334 457.041 C 363.68 459.068 362.027 461.096 360.375 463.125 C 359.834 463.789 359.293 464.454 358.735 465.138 C 355.268 469.405 351.871 473.72 348.5 478.063 C 344.085 483.74 339.44 489.185 334.704 494.597 C 330.009 499.964 325.483 505.455 321 511 C 319.584 512.73 318.168 514.459 316.75 516.188 C 315.166 518.125 313.583 520.062 312 522 C 311.51 522.6 311.02 523.199 310.515 523.817 C 303.766 532.08 297.086 540.388 290.516 548.793 C 287.567 552.562 284.567 556.29 281.559 560.012 C 280.299 561.619 279.133 563.301 278 565 C 273 563 273 563 262 553 C 261.67 572.14 261.34 591.28 261 611 C 259.68 611.33 258.36 611.66 257 612 C 243.627 592.359 235.865 567.849 228.875 545.313 C 228.592 544.412 228.309 543.511 228.017 542.583 C 227.266 540.068 226.609 537.553 226 535 C 225.776 534.137 225.552 533.274 225.321 532.384 C 224.805 529.712 224.56 527.689 225 525 C 227.196 521.984 229.935 520.081 233 518 C 234.351 516.989 235.701 515.977 237.051 514.965 C 238.469 513.952 239.889 512.943 241.313 511.938 C 242.904 510.8 244.495 509.662 246.086 508.523 C 246.898 507.943 247.71 507.363 248.546 506.765 C 252.534 503.897 256.486 500.981 260.438 498.063 C 261.224 497.482 262.01 496.902 262.819 496.305 C 265.213 494.537 267.607 492.769 270 491 C 280.037 483.582 290.092 476.192 300.222 468.901 C 305.76 464.91 311.261 460.87 316.75 456.813 C 323.267 451.997 329.821 447.241 336.426 442.547 C 340.549 439.615 344.65 436.651 348.75 433.688 C 349.504 433.142 350.259 432.597 351.036 432.036 C 354.924 429.227 358.809 426.414 362.691 423.598 C 380.228 410.886 380.228 410.886 389 405 C 389.718 404.514 390.436 404.028 391.176 403.527 C 393.867 401.827 395.594 400.991 398.813 401.063 Z" style="stroke-linecap: round;" fill="#099DED"/>
      <path d="M 279 569 C 282.74 570.682 284.561 572.69 287 576 C 285.02 575.34 283.04 574.68 281 574 C 280.942 577.208 280.906 580.416 280.875 583.625 C 280.858 584.529 280.841 585.432 280.824 586.363 C 280.788 591.328 281.036 595.344 283 600 C 279.433 596.92 278.132 593.702 277.77 589.02 C 277.86 582.294 278.156 575.676 279 569 Z" style="stroke-linecap: round;" fill="#219BED"/>
      <path d="M 368 653 C 371.795 654.491 373.61 656.757 376 660 C 373 660 373 660 370.313 657.625 C 368 655 368 655 368 653 Z" style="stroke-linecap: round;" fill="#269FF0"/>
      <text style="fill: rgb(92, 89, 89); font-family: Roboto; font-size: 145px; font-weight: 900; white-space: pre;" x="-4"><tspan x="55.242" y="552.655" style="fill: rgb(42, 41, 41); font-size: 145px; word-spacing: 0px;">TGT</tspan></text>
    </g>
    <path d="M 487.586 141.84 C 490.204 143.869 497.963 156.933 498.611 170.365 C 499.251 183.559 492.816 197.119 491.058 200.004 L 290.48 467.958 C 288.46 471.256 267.986 490.122 264.429 490.296 C 264.145 490.311 235.892 490.155 235.618 490.146 C 232.353 490.041 209.37 473.246 207.265 470.4 L 130.884 375.861 C 128.899 373.179 108.054 344.511 106.444 329.98 C 104.784 315.062 123.102 301.498 125.539 299.212 C 128.17 296.76 139.207 293.463 152.259 293.845 C 163.218 294.168 175.862 310.508 177.695 312.991 L 240.183 392.294 L 435.208 138.323 C 436.686 135.905 450.42 129.423 460.098 129.964 C 473.719 130.711 484.554 139.492 487.586 141.84 Z" style="stroke-width: 0.889; fill: rgb(114, 220, 100); opacity: 0.99; transform-origin: 305.39px 308.651px;"/>
    <text style="fill: rgb(91, 89, 89); font-family: Roboto; font-size: 50px; font-weight: 900; white-space: pre;" transform="matrix(3.25907, 0, 0, 3.370969, -878.183716, -768.556763)" x="371.261" y="335.084">ask</text>
  </g>
</svg>